<svg xmlns="http://www.w3.org/2000/svg" xmlns:xlink="http://www.w3.org/1999/xlink" width="400" zoomAndPan="magnify" viewBox="0 0 300 112.499997" height="150" preserveAspectRatio="xMidYMid meet" version="1.0"><defs><g/><clipPath id="fb56ea8417"><path d="M 23.78125 14.109375 L 271 14.109375 L 271 97.882812 L 23.78125 97.882812 Z M 23.78125 14.109375 " clip-rule="nonzero"/></clipPath><clipPath id="68e81b69dd"><path d="M 32.117188 14.109375 L 262.492188 14.109375 C 264.703125 14.109375 266.824219 14.988281 268.386719 16.550781 C 269.949219 18.113281 270.828125 20.234375 270.828125 22.445312 L 270.828125 89.546875 C 270.828125 91.757812 269.949219 93.878906 268.386719 95.441406 C 266.824219 97.003906 264.703125 97.882812 262.492188 97.882812 L 32.117188 97.882812 C 29.90625 97.882812 27.785156 97.003906 26.222656 95.441406 C 24.660156 93.878906 23.78125 91.757812 23.78125 89.546875 L 23.78125 22.445312 C 23.78125 20.234375 24.660156 18.113281 26.222656 16.550781 C 27.785156 14.988281 29.90625 14.109375 32.117188 14.109375 Z M 32.117188 14.109375 " clip-rule="nonzero"/></clipPath></defs><g clip-path="url(#fb56ea8417)"><g clip-path="url(#68e81b69dd)"><path stroke-linecap="butt" transform="matrix(1.150771, 0, 0, 1.150771, 23.781704, 14.109245)" fill="none" stroke-linejoin="miter" d="M 7.243388 0.000112623 L 207.435192 0.000112623 C 209.356458 0.000112623 211.199651 0.763867 212.557436 2.121652 C 213.915221 3.479436 214.678975 5.322629 214.678975 7.243895 L 214.678975 65.553967 C 214.678975 67.475233 213.915221 69.318426 212.557436 70.676211 C 211.199651 72.033995 209.356458 72.797749 207.435192 72.797749 L 7.243388 72.797749 C 5.322123 72.797749 3.47893 72.033995 2.121145 70.676211 C 0.76336 69.318426 -0.000394099 67.475233 -0.000394099 65.553967 L -0.000394099 7.243895 C -0.000394099 5.322629 0.76336 3.479436 2.121145 2.121652 C 3.47893 0.763867 5.322123 0.000112623 7.243388 0.000112623 Z M 7.243388 0.000112623 " stroke="#6f9de2" stroke-width="2.595411" stroke-opacity="1" stroke-miterlimit="4"/></g></g><g fill="#6f9de2" fill-opacity="1"><g transform="translate(40.596242, 73.21603)"><g><path d="M 7.203125 0 C 7.097656 0 7.046875 -0.0703125 7.046875 -0.21875 L 7.09375 -15.609375 L -0.15625 -37.515625 C -0.195312 -37.648438 -0.144531 -37.71875 0 -37.71875 L 6.015625 -37.71875 C 6.191406 -37.71875 6.300781 -37.648438 6.34375 -37.515625 L 10.359375 -22.921875 L 14.421875 -37.515625 C 14.453125 -37.648438 14.539062 -37.71875 14.6875 -37.71875 L 20.765625 -37.71875 C 20.910156 -37.71875 20.960938 -37.648438 20.921875 -37.515625 L 13.609375 -15.828125 L 13.65625 -0.21875 C 13.65625 -0.0703125 13.582031 0 13.4375 0 Z M 7.203125 0 "/></g></g></g><g fill="#6f9de2" fill-opacity="1"><g transform="translate(62.330489, 73.21603)"><g><path d="M 12.203125 0.546875 C 10.242188 0.546875 8.457031 0.0507812 6.84375 -0.9375 C 5.238281 -1.9375 3.945312 -3.257812 2.96875 -4.90625 C 2 -6.550781 1.515625 -8.367188 1.515625 -10.359375 L 1.578125 -27.53125 C 1.578125 -29.519531 2.050781 -31.328125 3 -32.953125 C 3.957031 -34.578125 5.25 -35.878906 6.875 -36.859375 C 8.507812 -37.835938 10.285156 -38.328125 12.203125 -38.328125 C 14.148438 -38.328125 15.914062 -37.835938 17.5 -36.859375 C 19.09375 -35.878906 20.367188 -34.578125 21.328125 -32.953125 C 22.285156 -31.328125 22.765625 -29.519531 22.765625 -27.53125 L 22.8125 -10.359375 C 22.8125 -8.367188 22.332031 -6.550781 21.375 -4.90625 C 20.425781 -3.257812 19.144531 -1.9375 17.53125 -0.9375 C 15.925781 0.0507812 14.148438 0.546875 12.203125 0.546875 Z M 12.203125 -6.015625 C 13.285156 -6.015625 14.234375 -6.457031 15.046875 -7.34375 C 15.859375 -8.226562 16.265625 -9.234375 16.265625 -10.359375 L 16.203125 -27.53125 C 16.203125 -28.726562 15.820312 -29.738281 15.0625 -30.5625 C 14.3125 -31.394531 13.359375 -31.8125 12.203125 -31.8125 C 11.078125 -31.8125 10.113281 -31.40625 9.3125 -30.59375 C 8.519531 -29.78125 8.125 -28.757812 8.125 -27.53125 L 8.125 -10.359375 C 8.125 -9.160156 8.519531 -8.132812 9.3125 -7.28125 C 10.113281 -6.4375 11.078125 -6.015625 12.203125 -6.015625 Z M 12.203125 -6.015625 "/></g></g></g><g fill="#6f9de2" fill-opacity="1"><g transform="translate(87.099943, 73.21603)"><g><path d="M 12.140625 0.546875 C 10.222656 0.546875 8.453125 0.0507812 6.828125 -0.9375 C 5.203125 -1.9375 3.910156 -3.265625 2.953125 -4.921875 C 1.992188 -6.585938 1.515625 -8.414062 1.515625 -10.40625 L 1.625 -37.515625 C 1.625 -37.648438 1.695312 -37.71875 1.84375 -37.71875 L 7.90625 -37.71875 C 8.050781 -37.71875 8.125 -37.648438 8.125 -37.515625 L 8.125 -10.40625 C 8.125 -9.175781 8.515625 -8.132812 9.296875 -7.28125 C 10.078125 -6.4375 11.023438 -6.015625 12.140625 -6.015625 C 13.296875 -6.015625 14.257812 -6.4375 15.03125 -7.28125 C 15.8125 -8.132812 16.203125 -9.175781 16.203125 -10.40625 L 16.203125 -37.515625 C 16.203125 -37.648438 16.273438 -37.71875 16.421875 -37.71875 L 22.5 -37.71875 C 22.644531 -37.71875 22.71875 -37.648438 22.71875 -37.515625 L 22.8125 -10.40625 C 22.8125 -8.382812 22.332031 -6.539062 21.375 -4.875 C 20.425781 -3.21875 19.144531 -1.898438 17.53125 -0.921875 C 15.925781 0.0546875 14.128906 0.546875 12.140625 0.546875 Z M 12.140625 0.546875 "/></g></g></g><g fill="#6f9de2" fill-opacity="1"><g transform="translate(112.031996, 73.21603)"><g><path d="M 2.390625 0 C 2.242188 0 2.171875 -0.0859375 2.171875 -0.265625 L 2.28125 -37.515625 C 2.28125 -37.648438 2.351562 -37.71875 2.5 -37.71875 L 13.4375 -37.71875 C 15.394531 -37.71875 17.191406 -37.238281 18.828125 -36.28125 C 20.472656 -35.332031 21.785156 -34.050781 22.765625 -32.4375 C 23.742188 -30.832031 24.234375 -29.019531 24.234375 -27 C 24.234375 -25.65625 24.03125 -24.453125 23.625 -23.390625 C 23.226562 -22.328125 22.757812 -21.421875 22.21875 -20.671875 C 21.675781 -19.929688 21.191406 -19.382812 20.765625 -19.03125 C 22.710938 -16.851562 23.6875 -14.300781 23.6875 -11.375 L 23.734375 -0.265625 C 23.734375 -0.0859375 23.644531 0 23.46875 0 L 17.34375 0 C 17.195312 0 17.125 -0.0507812 17.125 -0.15625 L 17.125 -11.375 C 17.125 -12.675781 16.660156 -13.804688 15.734375 -14.765625 C 14.816406 -15.722656 13.691406 -16.203125 12.359375 -16.203125 L 8.78125 -16.203125 L 8.734375 -0.265625 C 8.734375 -0.0859375 8.660156 0 8.515625 0 Z M 8.78125 -22.71875 L 13.4375 -22.71875 C 14.5625 -22.71875 15.554688 -23.128906 16.421875 -23.953125 C 17.285156 -24.785156 17.71875 -25.800781 17.71875 -27 C 17.71875 -28.15625 17.289062 -29.144531 16.4375 -29.96875 C 15.59375 -30.800781 14.59375 -31.21875 13.4375 -31.21875 L 8.78125 -31.21875 Z M 8.78125 -22.71875 "/></g></g></g><g fill="#dae4f2" fill-opacity="1"><g transform="translate(138.163799, 73.21603)"><g><path d="M 2.390625 0 C 2.242188 0 2.171875 -0.0859375 2.171875 -0.265625 L 2.21875 -37.515625 C 2.21875 -37.648438 2.289062 -37.71875 2.4375 -37.71875 L 19.84375 -37.71875 C 19.988281 -37.71875 20.0625 -37.628906 20.0625 -37.453125 L 20.0625 -31.390625 C 20.0625 -31.242188 19.988281 -31.171875 19.84375 -31.171875 L 8.734375 -31.171875 L 8.734375 -22.71875 L 19.84375 -22.71875 C 19.988281 -22.71875 20.0625 -22.644531 20.0625 -22.5 L 20.109375 -16.375 C 20.109375 -16.226562 20.035156 -16.15625 19.890625 -16.15625 L 8.734375 -16.15625 L 8.734375 -6.671875 L 19.890625 -6.671875 C 20.035156 -6.671875 20.109375 -6.578125 20.109375 -6.390625 L 20.109375 -0.21875 C 20.109375 -0.0703125 20.035156 0 19.890625 0 Z M 2.390625 0 "/></g></g></g><g fill="#dae4f2" fill-opacity="1"><g transform="translate(160.927843, 73.21603)"><g><path d="M 8.234375 0 C 8.085938 0 8 -0.0859375 7.96875 -0.265625 L 0.484375 -37.515625 C 0.453125 -37.648438 0.523438 -37.71875 0.703125 -37.71875 L 6.828125 -37.71875 C 6.972656 -37.71875 7.0625 -37.648438 7.09375 -37.515625 L 11.546875 -12.6875 L 15.875 -37.515625 C 15.914062 -37.648438 16.007812 -37.71875 16.15625 -37.71875 L 22.21875 -37.71875 C 22.40625 -37.71875 22.476562 -37.648438 22.4375 -37.515625 L 15.0625 -0.265625 C 15.03125 -0.0859375 14.941406 0 14.796875 0 Z M 8.234375 0 "/></g></g></g><g fill="#dae4f2" fill-opacity="1"><g transform="translate(184.396486, 73.21603)"><g><path d="M 2.390625 0 C 2.242188 0 2.171875 -0.0859375 2.171875 -0.265625 L 2.21875 -37.515625 C 2.21875 -37.648438 2.289062 -37.71875 2.4375 -37.71875 L 19.84375 -37.71875 C 19.988281 -37.71875 20.0625 -37.628906 20.0625 -37.453125 L 20.0625 -31.390625 C 20.0625 -31.242188 19.988281 -31.171875 19.84375 -31.171875 L 8.734375 -31.171875 L 8.734375 -22.71875 L 19.84375 -22.71875 C 19.988281 -22.71875 20.0625 -22.644531 20.0625 -22.5 L 20.109375 -16.375 C 20.109375 -16.226562 20.035156 -16.15625 19.890625 -16.15625 L 8.734375 -16.15625 L 8.734375 -6.671875 L 19.890625 -6.671875 C 20.035156 -6.671875 20.109375 -6.578125 20.109375 -6.390625 L 20.109375 -0.21875 C 20.109375 -0.0703125 20.035156 0 19.890625 0 Z M 2.390625 0 "/></g></g></g><g fill="#dae4f2" fill-opacity="1"><g transform="translate(207.160531, 73.21603)"><g><path d="M 2.65625 0 C 2.363281 0 2.21875 -0.125 2.21875 -0.375 L 2.171875 -37.296875 C 2.171875 -37.578125 2.316406 -37.71875 2.609375 -37.71875 L 7.484375 -37.71875 L 16.640625 -16.375 L 16.375 -37.296875 C 16.375 -37.578125 16.535156 -37.71875 16.859375 -37.71875 L 22.21875 -37.71875 C 22.4375 -37.71875 22.546875 -37.578125 22.546875 -37.296875 L 22.609375 -0.328125 C 22.609375 -0.109375 22.515625 0 22.328125 0 L 17.5625 0 L 8.1875 -19.953125 L 8.5625 -0.4375 C 8.5625 -0.144531 8.398438 0 8.078125 0 Z M 2.65625 0 "/></g></g></g><g fill="#dae4f2" fill-opacity="1"><g transform="translate(232.309376, 73.21603)"><g><path d="M 7.59375 0 C 7.445312 0 7.375 -0.0859375 7.375 -0.265625 L 7.375 -31.171875 L 0.328125 -31.171875 C 0.140625 -31.171875 0.046875 -31.257812 0.046875 -31.4375 L 0.109375 -37.515625 C 0.109375 -37.648438 0.179688 -37.71875 0.328125 -37.71875 L 20.921875 -37.71875 C 21.097656 -37.71875 21.1875 -37.648438 21.1875 -37.515625 L 21.1875 -31.4375 C 21.1875 -31.257812 21.117188 -31.171875 20.984375 -31.171875 L 13.875 -31.171875 L 13.9375 -0.265625 C 13.9375 -0.0859375 13.863281 0 13.71875 0 Z M 7.59375 0 "/></g></g></g></svg>